<svg width="32" height="32" viewBox="0 0 32 32" fill="none" xmlns="http://www.w3.org/2000/svg">
<path d="M28.8846 0.607528C28.3318 0.299703 27.7238 0.104001 27.0955 0.0315976C26.4671 -0.0408053 25.8307 0.0115099 25.2226 0.185556C24.6144 0.359601 24.0464 0.651967 23.5511 1.04596C23.0557 1.43994 22.6427 1.92784 22.3356 2.48177L13.3956 18.5997L8.27919 13.4739C7.83498 13.0132 7.30362 12.6456 6.71611 12.3928C6.1286 12.14 5.49671 12.0069 4.85732 12.0013C4.21792 11.9957 3.58382 12.1178 2.99202 12.3604C2.40021 12.6029 1.86256 12.9612 1.41042 13.4141C0.958282 13.8671 0.600718 14.4057 0.358592 14.9986C0.116466 15.5915 -0.00537436 16.2268 0.000181817 16.8673C0.00573799 17.5079 0.138579 18.1409 0.390953 18.7295C0.643328 19.3181 1.01018 19.8505 1.47011 20.2955L11.1011 29.9441C12.0112 30.8583 13.2391 31.36 14.5056 31.36L15.1725 31.3118C15.9106 31.2083 16.6147 30.9347 17.2293 30.5123C17.8439 30.09 18.3522 29.5305 18.7143 28.8779L30.753 7.16857C31.0604 6.61486 31.2559 6.00593 31.3283 5.37654C31.4007 4.74714 31.3487 4.10962 31.1752 3.50036C31.0017 2.89111 30.7101 2.32205 30.3171 1.8257C29.9241 1.32934 29.4373 0.915409 28.8846 0.607528Z" fill="white"/>
</svg>
