<svg width="45" height="45" viewBox="0 0 45 45" fill="none" xmlns="http://www.w3.org/2000/svg">
<path d="M11.8421 11.8418C11.8421 12.47 11.5926 13.0724 11.1484 13.5165C10.7043 13.9607 10.1019 14.2102 9.47371 14.2102H7.10529C6.47714 14.2102 5.87472 14.4598 5.43055 14.9039C4.98639 15.3481 4.73686 15.9505 4.73686 16.5787V37.8945C4.73686 38.5227 4.98639 39.1251 5.43055 39.5693C5.87472 40.0134 6.47714 40.263 7.10529 40.263H28.4211C29.0493 40.263 29.6517 40.0134 30.0959 39.5693C30.54 39.1251 30.7896 38.5227 30.7896 37.8945V35.5261C30.7896 34.898 31.0391 34.2955 31.4833 33.8514C31.9274 33.4072 32.5299 33.1577 33.158 33.1577C33.7861 33.1577 34.3886 33.4072 34.8327 33.8514C35.2769 34.2955 35.5264 34.898 35.5264 35.5261V37.8945C35.5264 39.779 34.7778 41.5862 33.4453 42.9187C32.1128 44.2512 30.3056 44.9998 28.4211 44.9998H7.10529C5.22085 44.9998 3.41359 44.2512 2.08109 42.9187C0.748591 41.5862 0 39.779 0 37.8945V16.5787C0 14.6942 0.748591 12.887 2.08109 11.5545C3.41359 10.222 5.22085 9.47339 7.10529 9.47339H9.47371C10.1019 9.47339 10.7043 9.72292 11.1484 10.1671C11.5926 10.6113 11.8421 11.2137 11.8421 11.8418Z" fill="white"/>
<path d="M27.464 7.13119L37.8661 17.5333L22.9924 32.4615C22.7724 32.6822 22.5111 32.8573 22.2233 32.9768C21.9356 33.0962 21.6271 33.1578 21.3155 33.1579H14.2102C13.5821 33.1579 12.9797 32.9083 12.5355 32.4642C12.0913 32.02 11.8418 31.4176 11.8418 30.7894V23.6841C11.8419 23.3726 11.9034 23.0641 12.0229 22.7763C12.1424 22.4886 12.3175 22.2273 12.5381 22.0073L27.464 7.13119ZM42.8493 2.15039C44.1555 3.45575 44.9214 5.20582 44.9938 7.05112C45.0663 8.89642 44.44 10.7011 43.2401 12.1049L42.8516 12.5312L41.2103 14.1749L30.82 3.7846L32.4661 2.15039C33.843 0.773515 35.7105 0 37.6577 0C39.6049 0 41.4724 0.773515 42.8493 2.15039Z" fill="white"/>
</svg>
