<svg width="51" height="51" viewBox="0 0 51 51" fill="none" xmlns="http://www.w3.org/2000/svg">
<path d="M20.16 10.08H30.24C30.24 8.74331 29.709 7.46136 28.7638 6.51618C27.8186 5.571 26.5367 5.04 25.2 5.04C23.8633 5.04 22.5814 5.571 21.6362 6.51618C20.691 7.46136 20.16 8.74331 20.16 10.08ZM15.12 10.08C15.12 7.40662 16.182 4.84273 18.0724 2.95236C19.9627 1.062 22.5266 0 25.2 0C27.8734 0 30.4373 1.062 32.3276 2.95236C34.218 4.84273 35.28 7.40662 35.28 10.08H47.88C48.5483 10.08 49.1893 10.3455 49.6619 10.8181C50.1345 11.2907 50.4 11.9317 50.4 12.6C50.4 13.2683 50.1345 13.9093 49.6619 14.3819C49.1893 14.8545 48.5483 15.12 47.88 15.12H45.6574L43.4246 41.1768C43.21 43.6929 42.0587 46.0368 40.1987 47.7448C38.3386 49.4527 35.9052 50.4003 33.3799 50.4H17.0201C14.4948 50.4003 12.0614 49.4527 10.2013 47.7448C8.34126 46.0368 7.19001 43.6929 6.97536 41.1768L4.74264 15.12H2.52C1.85165 15.12 1.21068 14.8545 0.738091 14.3819C0.265499 13.9093 0 13.2683 0 12.6C0 11.9317 0.265499 11.2907 0.738091 10.8181C1.21068 10.3455 1.85165 10.08 2.52 10.08H15.12ZM32.76 25.2C32.76 24.5317 32.4945 23.8907 32.0219 23.4181C31.5493 22.9455 30.9083 22.68 30.24 22.68C29.5717 22.68 28.9307 22.9455 28.4581 23.4181C27.9855 23.8907 27.72 24.5317 27.72 25.2V35.28C27.72 35.9483 27.9855 36.5893 28.4581 37.0619C28.9307 37.5345 29.5717 37.8 30.24 37.8C30.9083 37.8 31.5493 37.5345 32.0219 37.0619C32.4945 36.5893 32.76 35.9483 32.76 35.28V25.2ZM20.16 22.68C19.4917 22.68 18.8507 22.9455 18.3781 23.4181C17.9055 23.8907 17.64 24.5317 17.64 25.2V35.28C17.64 35.9483 17.9055 36.5893 18.3781 37.0619C18.8507 37.5345 19.4917 37.8 20.16 37.8C20.8283 37.8 21.4693 37.5345 21.9419 37.0619C22.4145 36.5893 22.68 35.9483 22.68 35.28V25.2C22.68 24.5317 22.4145 23.8907 21.9419 23.4181C21.4693 22.9455 20.8283 22.68 20.16 22.68Z" fill="white"/>
</svg>
